<?xml version="1.0" encoding="UTF-8"?>
<svg id="Layer_2" data-name="Layer 2" xmlns="http://www.w3.org/2000/svg" viewBox="0 0 419.96 252.75">
  <defs>
    <style>
      .cls-1 {
        fill: #fff;
      }
    </style>
  </defs>
  <g id="Layer_1-2" data-name="Layer 1">
    <g>
      <path class="cls-1" d="M35.17,166.75c-.43,0-2.43.62-6.01,1.81l-4.63,1.67c-4.2,1.53-7.16,2.29-8.88,2.29-.1,0-.14,0-.14-.05,0-.09.91-.38,2.67-.91,9.88-2.96,19.28-7.01,28.21-12.22,6.11-4.06,11.88-8.97,17.37-14.65,3.67-3.68,6.78-7.88,9.35-12.65,1.29-2.24,2.58-4.29,3.96-6.2-.91,2.05-1.91,3.86-2.96,5.44-1.05,1.57-1.96,3.29-2.77,5.11-.72,1.86-1.43,3.24-2.05,4.06-.62.81-1.62,1.81-3.01,3.01-.29.24-.81.72-1.48,1.48-1,1-2.05,2.15-3.15,3.48-.76.95-1.15,1.57-1.15,1.76,0,.05.05.1.19.1l.86-.72,3.63-3.15c.53-.48.86-.81,1-.96.86-1.15,2.1-2.53,3.67-4.11.91-1,1.48-1.96,1.67-2.77.1-.48.24-.81.43-1.1l.81-1.43c.53-.86.95-1.38,1.34-1.58.14-.05.33-.1.48-.14.14,0,.29-.05.43-.19.14-.14.33-.57.67-1.39,1.15-2.62,2-4.2,2.58-4.82.33-.38.67-.57,1.05-.57l.38.14s.05-.05.1-.1v-.19l-.05-.29v-.91l-.05-.38c-.14-3.01-.72-6.06-1.72-9.07-1.29-4.72-3.58-8.83-6.97-12.31-5.97-5.25-13.27-7.87-22-7.87l-2.1.05c-9.64.48-18.42,2.82-26.3,7.06-10.21,5.68-15.32,11.36-15.32,17.09l.05.86c.33,2.53,1.29,4.58,2.86,6.25,1.57,1.67,2.91,2.67,4.01,3.01,1.1.38,1.86.57,2.29.57.72,0,1.19-.29,1.43-.81-3.2-1.29-4.77-3.1-4.77-5.49,0-.57.09-1.14.29-1.77.91-3.25,3.01-6.01,6.2-8.26.91-.62,2.1-1.29,3.58-2.05,3.25-1.72,5.2-3.01,5.92-3.91l.05-.19c0-.19-.24-.29-.76-.29-1.38.14-2.82.72-4.34,1.72-.24.24-1.05.81-2.48,1.67-1.72,1.14-2.72,1.72-3.01,1.72,0-.05.19-.29.57-.62,4.73-3.91,10.36-6.87,16.94-8.83,6.54-1.96,12.22-2.96,17.04-2.96,2.24,0,3.53.14,3.77.38.1.14.19.33.24.57.24.53.43.76.62.76s.48-.24.91-.72c.53-.57.86-.86,1.1-.86.14,0,.33.1.48.33.33.57.81.86,1.34.86.14,0,.33-.05.53-.09.19-.05.43-.05.76-.05.29,0,.62.05,1,.19,2.86,1,5.44,2.48,7.73,4.53,2.24,2.05,3.48,4.68,3.63,7.97-.43,6.35-2.77,12.22-6.97,17.61-4.2,5.44-8.69,10.07-13.46,13.84-.72.48-1.48,1-2.34,1.53-1.24.81-2.43,1.67-3.58,2.58-1.19.91-2.05,1.95-2.58,3.15l-.14.29h-.19s-.14-.15-.19-.29c-.1-.09-.19-.19-.33-.33-.14-.14-.29-.19-.53-.19-.57.1-1.34.72-2.29,1.96-.57,1-1.05,1.48-1.43,1.48-.14,0-.38-.05-.62-.14l-.1-.05-.67-.24s-.05,0-.05.05v.24l-.05.86-.95.09c-.67,0-1.19.1-1.57.33-.38.24-.62.86-.67,1.86-.33,0-.67-.14-.95-.38-.33-.24-.48-.57-.53-1.1,0-1.53.19-3.15.57-4.82.43-1.96,1.19-4.63,2.29-8.02l.29-.91c.1-.38.33-.81.62-1.34.48-.96.72-1.72.72-2.29,0-.34-.1-.57-.24-.72l-.05-.24c0-.1.05-.19.19-.33.81-.81,1.38-1.53,1.67-2.15.19-.38.57-1.57,1.15-3.48.72-2.05,1.53-3.91,2.43-5.63,1.48-2.86,2.2-4.82,2.2-5.87,0-.91-.29-1.77-.81-2.58-.81-1.19-1.67-2.15-2.63-2.77-1-.62-1.72-.95-2.24-.95-.14,0-.29.05-.43.1-.67.43-1.81,3.43-3.48,8.97-1.1,3.53-1.72,5.59-1.86,6.2-1.38,4.58-2.86,9.11-4.39,13.6-1.67,4.82-2.62,7.83-2.96,9.02-1.05,3.39-1.96,5.82-2.67,7.35-.76,1.57-1.81,2.67-3.2,3.29-1.38.62-3.48,1.29-6.39,2l-2.63.67c-1.05.24-1.96.38-2.77.38-1.67,0-2.67-.62-2.91-1.81-.05-.34-.1-.72-.1-1.15,0-1.57.53-3.48,1.58-5.73,1.34-2.86,2.86-5.58,4.58-8.11,1.72-2.53,2.96-4.15,3.67-4.92h-.05c-.95,0-2.67,1.76-5.15,5.25-1.62,2.34-2.96,4.3-3.96,5.87-1.29,2.15-2.1,3.24-2.34,3.24.05-.57.57-1.53,1.57-2.91,1.29-1.77,2-3.1,2.15-4.01-.76,0-2.2,1.72-4.34,5.2-2.1,3.48-3.15,6.2-3.15,8.16,0,1.77,1.67,3.96,5.06,6.54,1.58,1.1,3.34,1.67,5.3,1.67.52,0,1.1-.05,1.67-.14,2.72-.38,5.39-1.05,8.07-1.96,6.49-1.86,11.07-3.44,13.74-4.73,1.1-.53,1.62-.91,1.62-1.24,0-.14-.1-.24-.29-.24ZM56.51,100.7c-.1,0-.24-.05-.43-.14-.14-.1-.24-.19-.24-.28,0-.24.24-.34.67-.34.38,0,.57.14.57.38-.14.24-.33.38-.57.38ZM54.17,148.47c.48-.48.76-.67.95-.67.1,0,.1.05.1.19,0,.48-.38,1.1-1.24,1.77h-.14c-.14-.14-.19-.29-.19-.43,0-.24.19-.53.52-.86ZM49.97,151.81c.29-.24.57-.38.86-.48.33-.1.53-.15.67-.15.24,0,.38.05.38.19,0,.33-.67.96-2,1.81l-.1.05c-.14-.38-.19-.57-.19-.62,0-.33.14-.57.38-.81ZM42.52,156.68c.14,0,.24.1.24.33,0,.48-.14.72-.43.72l-.14-.05c-.14-.15-.19-.34-.19-.57,0-.29.14-.43.53-.43ZM41.52,157.4c.19,0,.29.05.29.24l-.1.29c-.19.33-.33.53-.48.53s-.24-.19-.24-.53.19-.53.53-.53ZM38.47,159.21c.19-.1.29-.15.38-.15.19,0,.29.1.29.29s-.05.33-.19.48c-.1.09-.24.14-.33.14l-.24-.05c-.1-.14-.14-.24-.14-.38s.1-.24.24-.33ZM38.85,131.34c0-.29.29-1.14.81-2.53l1.24-2.48.05.1c0,.24-.29,1.05-.86,2.48-.67,1.67-1.1,2.48-1.24,2.48v-.05ZM32.79,153.01c-.24,1-.43,1.48-.57,1.48-.1,0-.14-.14-.14-.53s.1-.81.33-1.29c.14-.14.24-.19.29-.19.1,0,.14.1.14.24l-.05.29ZM29.69,156.44c.72-2.43,1.53-4.53,2.34-6.3l2-5.68c2.77-7.87,4.2-11.79,4.39-11.79.1.05.14.14.14.28,0,.24-.33,1.14-.91,2.82-1.05,2.77-1.96,5.58-2.72,8.45-.14.43-.19.72-.24.91-.62,1.91-1.34,3.58-2.05,4.96l-1.29,2.86c-.38,1.29-.72,2.67-1,4.11-.53,2.24-.81,3.39-.91,3.48h-.1c-.24,0-.38-.24-.38-.67,0-.81.24-1.96.72-3.44Z"/>
      <path class="cls-1" d="M49.4,103.04c.38-.15.57-.33.57-.43s-.14-.14-.43-.19c-.05.05-.19.05-.38.05-1.38.19-2.1.43-2.1.71,0,.24.19.33.57.33.52,0,1.1-.14,1.77-.48Z"/>
      <path class="cls-1" d="M42.86,104.52c1.67-.38,2.58-.76,2.62-1.14l-1.62-.24c-1.34,0-2.53.33-3.58,1.05-.43.29-.62.48-.62.57,0,.15.19.19.62.19.62,0,1.48-.14,2.58-.43Z"/>
      <path class="cls-1" d="M53.83,154.87c-.1.05-.14.14-.19.19l.14-.05s.14.05.19.14c.05.05.09.19.14.33.05.14.05.29.05.38,1.81-.86,3.53-2,5.11-3.48.67-.62,1-1,1-1.24,0-.05-.05-.1-.1-.1-.53,0-2.67,1.29-6.35,3.82Z"/>
      <path class="cls-1" d="M46.2,161.84c.19-.05.38-.19.62-.43.14,0,1.19-.72,3.15-2.15,1.77-1.24,2.77-2.1,3.1-2.48.43-.1.62-.48.62-1.15,0-.43-.14-.62-.43-.62-.19,0-.38.19-.67.57-.29.14-1.29.86-2.91,2.05l-3.29,2.48c-.24,0-.81.24-1.62.76-1.1.67-1.72,1.05-1.86,1.19l-.19.05c-.19.1-.29.19-.33.33-.33.05-.62.19-.81.38-.14,0-.29.05-.33.19-.29,0-.43.19-.43.57,0,.08,0,.15.01.22-.05-.02-.11-.03-.2-.03-.91,0-1.96.43-3.2,1.38h-.09c-.14,0-.24.05-.29.19-.05.14-.14.29-.19.38l-.09.28.19.05c.1.33.29.53.57.53.57,0,1.14-.24,1.57-.67.38,0,.67-.1.91-.34.24-.19.38-.43.38-.71l-.05-.33c.26-.2.43-.37.51-.5.06.36.2.55.45.55.1,0,.19-.05.33-.24.05,0,.72-.33,1.96-.96,1.24-.62,2.01-1.05,2.29-1.33.14,0,.29-.1.33-.24Z"/>
      <path class="cls-1" d="M38.32,105.14c.05-.1.1-.14.1-.24,0-.19-.19-.29-.57-.29-.62,0-2,.33-4.25,1.1-2.39.81-3.82,1.34-4.34,1.58-.81.38-1.19.81-1.19,1.24v.1c.24.1.53.14.86.14,1.14,0,2.86-.43,5.11-1.34,2.86-1.05,4.3-1.86,4.3-2.29Z"/>
      <path class="cls-1" d="M85.08,142.22c-.19.05-.33.19-.53.29-.19.14-.24.28-.24.38,0,.05.1.1.38.1.62.05,1.1,0,1.43-.14.33-.15.48-.29.48-.38,0-.19-.19-.24-.52-.28-.24,0-.57,0-1,.05Z"/>
      <path class="cls-1" d="M77.25,143.89c-.09.53-.09,1-.09,1.48,0,.53.05,1.05.14,1.67.1.67.48,1.43,1.1,2.39.48.72.81,1.29,1.05,1.86.24.53.57,1,.91,1.48.38.48,1,.91,1.86,1.39,1.81,1.05,3.29,1.62,4.44,1.72.14,0,.57,0,1.29-.05.72-.05,1.96-.67,3.77-1.81.81-.53,2-1.38,3.53-2.58.91-.71,1.57-1.34,2.05-1.86.43-.53.76-.86,1-1.05.24-.15.52-.38.86-.67.24-.09.81-.67,1.81-1.76.33-.38.52-.62.52-.77-.1-.05-.33.1-.67.38-3.82,2.96-7.73,5.49-11.79,7.64-.05,0-.09.05-.19.1-.1.05-.24.1-.38.14-.1.05-.24.1-.33.05-.09,0-.14-.05-.14-.19.09-.38.48-.81,1.29-1.34,1.62-1.14,2.82-1.77,3.63-1.86.43-.14.86-.43,1.29-.91.24-.24.43-.43.67-.53,3.53-2.39,6.87-5.14,10.08-8.28.03.12.05.23.08.36.19.67.33,1.14.53,1.48.19.38.76.76,1.77,1.24,2.1,1.15,3.67,1.72,4.68,1.81.24-.05.62.1,1.1.43.38.38.76.57,1.14.62.33,0,.67.24.91.62.09.19.14.33.14.48-.05.29-.38.72-1.1,1.24-1.43,1.15-3.15,2.1-5.15,2.87-1.1.53-2.39.86-3.87,1-1.48.14-2.86-.14-4.01-.81l-1.1-.91c-.1,0-.19-.05-.24-.1-.29-.29-.53-.38-.62-.38s-.19.19-.19.53c.05,1.76.67,3.05,1.86,3.86,1.77,1.14,3.72,1.62,5.92,1.43,2.2-.24,4.53-1.05,7.11-2.43,1.77-.86,2.72-1.34,2.91-1.34.1,0,.14.05.14.09-.05.24-.33.52-.86.91-1.1.81-1.86,1.24-2.24,1.24-.43.19-.67.33-.81.48-.43.28-1.53.67-3.29,1.19-.86.24-1.43.38-1.72.38l-.91.19c-1.05.24-1.58.43-1.58.48,0,.14.57.24,1.72.19.48,0,1,0,1.48-.05,2.05-.19,4.15-.81,6.3-1.91,1.24-.67,1.96-1.1,2.15-1.34.1-.19.29-.33.52-.43.29-.09.72-.38,1.29-.91,0,0,0-.05.05-.05.67-.62,1.05-1,1.19-1.15.48-.52.76-1.48.91-2.82v-1.24c-.14-2.39-1.15-4.1-3.01-5.2-1.62-.91-3.2-1.57-4.72-2.05-.05,0-.1,0-.14-.05,0,0-.43-.14-1.19-.38-1.38-.43-2.05-.81-2-1.15,0-.1.1-.19.24-.29.14-.05.24-.19.24-.43,2.1-3.39,4.77-5.25,8.11-5.58,1.1,0,2.1.19,2.96.57.57.29,1.05.43,1.43.38.43-.05.67-.38.76-1.05.19-2.1-.19-3.96-1.15-5.68-.72-1.29-1.91-2.05-3.58-2.29h-.14c-2.63.24-5.15,1.34-7.64,3.29-2.48,1.91-4.58,4.01-6.3,6.3-.29.81-.43,1.43-.48,1.95-.05.47-.05.99-.03,1.52-2.44,2.17-5.01,4.23-7.75,6.16-2.34,1.57-4.68,2.91-7.11,3.86-1.34.53-2.58.76-3.63.72-.81-.05-1.48-.29-2.1-.72l-.24-.14c-.38-.24-.52-.48-.52-.67,0-.1.05-.24.1-.43.09-.19.14-.43.14-.72s-.05-.62-.1-.86c0-.29-.05-.53-.05-.77,0-.43.19-.67.53-.62l.24.05s.1-.05.1-.1c0,0,0-.09-.05-.19-.05-.09-.05-.19-.1-.29-.05-.1-.05-.19-.05-.29,0-1.19.33-1.77,1-1.72l.76.09c1.19.1,2.82-.38,4.82-1.34.38-.19,1-.62,1.86-1.24,1.81-1.29,2.91-1.96,3.25-1.96v.05c0,.53-.91,1.38-2.72,2.62-1.34.96-2.48,1.67-3.53,2.24-.33.05-.76.19-1.24.38,0,0-.09.05-.19.09-.09,0-.24.05-.43.14-.19.05-.29.15-.29.24,0,.05.1.14.29.19.38.14.67.33.72.57.1.19.24.33.53.33.14,0,.38,0,.67-.05,2-.43,4.39-1.91,7.02-4.39,1.43-1.34,2.1-2.72,2.1-4.2,0-.24-.05-.34-.19-.34-.1,0-.33.19-.76.57-.48.53-.81.76-.95.72l-.19-.05c.05-.33.24-.76.57-1.24.43-.62.62-1.09.62-1.43,0-.29-.09-.48-.38-.67-.29-.1-.43-.38-.43-.86-.1-.43-.1-.91-.1-1.43-.09-.38-.38-.81-.95-1.24-.91-.67-1.96-1-3.05-1.1-2.1-.14-4.06.24-5.87,1.19-2.91,1.91-5.3,4.49-7.16,7.73-1.24,2.19-2.05,4.58-2.43,7.25ZM116.67,129.14c.48-.19.91-.29,1.38-.33.57-.05,1.15,0,1.72.14.57.15.86.38.86.57-.05.14-.14.24-.29.38-1.15-.29-1.91-.43-2.39-.38-.43.05-1.29.29-2.53.72l-.95.24c.19-.38.95-.81,2.2-1.34ZM86.32,136.49c.48-.71,1.19-1.43,2.15-2.15,1.34-1,2.53-1.48,3.53-1.39.52,0,.81.24.81.62,0,.71-.62,1.53-1.96,2.43-1.67,1.05-3.1,1.58-4.3,1.48-.33-.05-.53-.14-.53-.38,0-.14.1-.38.29-.62Z"/>
      <path class="cls-1" d="M137.47,128.14c.86.53,1.62.81,2.29.81,1.1,0,2.24-.86,3.39-2.58.38-.53.76-1,1.1-1.38.53-.48.76-.96.76-1.38-.05-.24-.09-.48-.24-.81s-.19-.57-.19-.72c-.05-.19,0-.28.05-.28,0,0,.05-.05.1-.05s.1-.05.1-.05c.05,0,0-.05,0-.1-.29-.76-1.05-1.29-2.24-1.62-1.05-.33-1.96-.48-2.77-.48-.95.28-1.77,1-2.43,2.15-.67,1.14-1,2.05-1.05,2.81,0,.72-.05,1.15,0,1.29.05,1,.43,1.82,1.14,2.39ZM138.67,122.03c.48-.76.81-1.15.95-1.15.1,0,.14.05.14.19,0,.24-.19.76-.53,1.48-.67,1.05-1.05,1.57-1.19,1.57-.1-.05-.14-.1-.14-.24,0-.24.24-.86.76-1.86Z"/>
      <path class="cls-1" d="M159.66,148.28c.14,0,.29-.05.48-.15.14-.1.29-.24.33-.38.09-.1.09-.24.05-.33-.05-.1-.14-.15-.29-.15s-.29.05-.43.15c-.19.09-.29.19-.38.33-.05.14-.1.28-.05.38.05.1.14.15.29.15Z"/>
      <path class="cls-1" d="M172.07,133.87c0-.19-.05-.34-.05-.43-.05-.14-.09-.29-.14-.43-.29-.81-.91-1.63-1.77-2.58-.91-.91-1.72-1.39-2.43-1.53-.48.05-.91.28-1.24.81-.29.48-.57,1-.72,1.48-.1.14-.14.29-.24.53-.09.29-.24.57-.38.91-.14.29-.29.48-.48.62-.33.1-.62.1-.86-.1-.29-.24-.48-.48-.67-.76-.62-1-1.19-1.76-1.72-2.34-.57-.53-1.34-1.05-2.29-1.48-1.43-.57-2.82-.62-4.25-.19l-.43.14c-1.95.86-3.57,2.48-4.96,4.81-3.24,4.09-5.87,7.01-7.88,8.74-2.48,2.05-5.06,3.63-7.78,4.73h-.24c-.38,0-.57-.19-.62-.57,0-.86.76-2.82,2.39-5.87.72-1.43,1.29-2.63,1.67-3.58.33-.76.72-1.43,1.19-1.96.76-.86,1.1-1.62,1.05-2.24,0-.62-.53-1.34-1.57-2.24-1-.62-1.91-.91-2.72-.91-1.53,0-2.77,1-3.72,3.01-.14.29-.33.57-.57.86-.24.33-.38.62-.53.86-2.15,4.15-3.67,8.54-4.63,13.12-.29,1.43-.38,2.72-.33,3.82.19,3.44,1.81,5.11,4.87,5.11.86,0,1.81-.1,2.96-.38l.57-.09c.57-.19.91-.29,1-.33.1-.05.19-.14.24-.24.1-.14.24-.28.48-.52.76-.86,2.05-1.86,3.82-3.01,1.05-.67,1.77-1.29,2.15-1.86.53-.72.76-1.19.76-1.48,0-.05-.05-.1-.1-.1-.19,0-.67.34-1.43.96-1.81,1.53-3.68,2.72-5.54,3.58-2.67,1.24-4.25,1.86-4.77,1.86t-.05-.05c0-.14.81-.72,2.39-1.62,4.34-2.58,8.02-5.11,10.93-7.68,1-1.09,1.92-2.17,2.77-3.24-.13.63-.24,1.26-.29,1.91-.14,1.1-.05,2.2.24,3.29l.05.14c.05.14.1.29.14.38.19.58.33,1.05.48,1.34.14.29.29.57.53.86.24.29.57.67,1.05,1.15.1.1.19.24.24.29.05.09.05.14.05.24v.14s.05.05.05.05c.05.05.1.05.14.05,2.05.43,3.58.48,4.58.19,1.05-.29,2.29-.96,3.72-1.96.24-.19.52-.38.86-.57.29-.19.48-.33.62-.48.1-.1.14-.19.14-.29.05-.05,0-.14,0-.19-.05-.1-.05-.15-.05-.24,0-.1.05-.19.14-.33.1-.15.24-.33.43-.53.14-.1.19-.19.19-.24-.05,0-.1.05-.19.1-.05.05-.14.15-.24.19-.05.05-.14.1-.19.15-.1.05-.1.09-.14.09-.24.19-.48.38-.67.53-.81.72-1.77,1.34-2.86,1.86-.1,0-.29.1-.62.19-.33.14-.67.24-1.1.38-.43.14-.76.23-1.1.33-.29.09-.43.09-.48.05,0-.05.24-.19.67-.43.1-.05.14-.05.19-.1,1.57-.71,3.1-1.62,4.58-2.72.09-.1.24-.19.43-.33.29-.29.67-.57,1.1-.91.43-.29.81-.53,1.19-.62.43-.14.72-.05.91.24.24.38.29.96.14,1.72-.14.76-.29,1.43-.43,2-.05.14-.1.29-.14.43-1.29,5.63-3.2,10.64-5.77,15.08-2.58,4.39-6.06,8.02-10.55,10.83-3.91,1.24-7.45.24-10.64-2.96-.38-.38-.76-.86-1.1-1.34-.24-.43-.57-1-.91-1.77-.24-.48-.43-.91-.62-1.29-.19-.33-.38-.57-.48-.67-.33-.14-.57-.14-.72,0-.14.19-.19.43-.19.77,0,.28,0,.62.05.86.43,2.2,1.43,4.15,3.01,5.87,1.58,1.72,3.2,3.05,4.92,3.96,1.57.76,3.05,1.24,4.44,1.43,1.15.19,2.29.53,3.48.96-1.96.24-3.91,0-5.87-.67-.57-.19-1.05-.38-1.43-.57-.38-.14-.72-.33-1.05-.53-.38-.24-.86-.53-1.43-.76-.33-.19-.52-.24-.62-.24s0,.19.24.48c.91,1.15,2.34,2,4.25,2.58,1.96.57,3.58.91,4.92.95.95,0,1.81-.09,2.53-.33.67-.24,1.43-.52,2.29-.95.1-.05.19-.1.33-.14,1.1-.48,2.1-1.1,3.05-1.81.29-.24.57-.53.95-.91.38-.33.76-.72,1.15-1.05s.67-.53.91-.67c.29-.19.43-.33.48-.48.05-.19.1-.38.1-.72v-.14c0-.24.05-.43.1-.53.05-.1.14-.14.19-.14h.24c.1.05.14.05.24.05.05,0,.1,0,.14-.1,0-.05.05-.19.05-.38v-.76s0-.1.05-.14c.05,0,.1-.05.19-.05.05,0,.19-.05.33-.1.14-.05.19-.14.24-.33,0-.15,0-.33-.05-.53-.05-.14-.05-.33-.05-.48s0-.24.1-.33c.05-.14.14-.24.19-.19,0,0,.05.1.05.19v.43c0,.14,0,.24-.05.38v.14c.43-.48.91-1.14,1.53-2.05.57-.86,1-1.58,1.24-2.1.19-.48.33-.86.33-1.14,0-.24,0-.48-.05-.76-.05-.19-.09-.48-.14-.86,0-.15.05-.19.19-.19.1,0,.24,0,.38.05.14.05.33.1.48.1s.24-.1.29-.29c0-.15-.05-.29-.14-.33-.1-.05-.19-.1-.33-.1-.14.05-.24.05-.38.05h-.1c0-.33.14-.71.38-1.19.24-.48.53-.86.91-1.24.33-.38.67-.62.95-.72,0,.05-.05.15-.1.19-.05.1-.1.19-.14.29-.05.1-.1.19-.14.29-.05.05-.05.09,0,.14.1,0,.19,0,.43-.1.43-.15.67-.33.76-.57.05-.24,0-.48-.09-.77-.14-.24-.33-.52-.48-.76-.05-.05-.09-.1-.09-.1-.14-.24-.19-.38-.19-.43,0-.1.1-.1.19-.1.14,0,.24,0,.43.05.19.05.38.05.53.05.19,0,.29-.05.29-.19.05-.19.05-.28-.05-.38-.05-.05-.14-.09-.24-.14-.1-.05-.19-.09-.24-.14-.1-.1-.1-.19-.1-.33.05-.14.14-.38.29-.67l.38-.67c.38-.77.76-1.81,1.19-3.1.38-1.24.72-2.43,1-3.48.1-.29.14-.52.19-.71.29-1,.57-2.01.91-3.01.52-1.81,1.05-3.63,1.53-5.44.19-.71.43-1.57.72-2.53.38-1.1.67-2.15.95-3.25.29-1.1.43-2,.38-2.72ZM126.45,149.66c-.29-.05-.48-.33-.48-.76.05-.43.19-.67.48-.67s.43.19.43.57c.05.57-.09.86-.43.86ZM132.7,133.15c0,.14-.19.53-.53,1.05l-.48.86-.53.43c-.33.33-.48.72-.48,1.05,0,.14,0,.33-.1.53-.05.24-.1.48-.14.81-.05.33-.14.62-.24.91-.14.19-.24.38-.24.57.05.19,0,.43-.1.71l-.38,1.19c-.14.33-.33.67-.53,1.05-.43.72-.67,1.14-.72,1.29-.05.19-.29.48-.72.91-.19.14-.29.38-.24.72l-.19,1.53c-.1.29-.19.43-.29.43-.14,0-.19-.09-.29-.24-.05-.14-.1-.29-.1-.43v-.19c.05-.43.14-.76.33-1.14.14-.33.29-.67.38-.96.05-.28.19-.67.43-1.19.19-.57.43-1.1.72-1.67.24-.53.43-.96.62-1.19.19-.29.38-.53.53-.71.19-.19.24-.53.24-1l-.05-.38c-.05-.43-.05-.72,0-.86,0-.14.24-.62.76-1.34.43-.62.67-1.1.72-1.38.1-.67.24-1.1.43-1.34.14-.19.29-.33.43-.43.19-.14.33-.38.52-.72.24-.52.72-.86,1.43-1.05l.19-.05c.29,0,.43.14.43.38.05.19-.14.43-.53.71-.43.29-.72.48-.95.62-.24.14-.38.33-.38.53ZM148.49,181.26c-.29.14-.62.29-1,.38-.76.29-1.24.33-1.34.19-.05-.05.1-.14.38-.24.29-.15.62-.24,1.05-.33.29-.1.57-.19.76-.29.29-.14.43-.14.48-.1,0,.1-.1.19-.33.38ZM159.52,170.57c-.1,0-.14-.05-.24-.19-.1-.14-.14-.29-.14-.43-.05-.14,0-.24.1-.33.1,0,.19.1.29.19.05.14.09.24.09.38,0,.24-.05.38-.09.38ZM160.28,169.28s-.14.1-.19.05c-.05-.05-.1-.19-.1-.38.05-.05.05-.14.1-.19,0-.05.05-.1.1-.14,0-.05.05-.05.14,0,.05.1.1.24.1.33,0,.14-.05.24-.14.33ZM156.65,133.44s.09-.09.19-.05c.09,0,.14.05.19.1.1.1.1.19.1.24,0,.1-.05.19-.1.24-.05.1-.14.1-.24.1-.05,0-.14-.05-.19-.14-.05-.05-.1-.14-.1-.24s.05-.15.14-.24ZM152.55,141.07c-.29.57-.43,1.15-.43,1.62s-.05.76-.09.81c-.05.05-.1-.1-.1-.48,0-.24,0-.53.05-.86,0-.33,0-.62.05-.86,0-.29.05-.48.05-.53.05-.05.14-.29.33-.62.19-.38.43-.76.67-1.19.24-.43.43-.76.57-1.05.19-.38.29-.72.33-1,0-.19.05-.34.1-.43.05-.14.1-.24.24-.24.14-.1.33-.19.43-.33.14-.19.24-.33.33-.52v-.05c.1-.14.19-.29.29-.43.1-.19.19-.33.24-.43.1-.14.14-.19.14-.19l.05.05s.1.14.14.19c.05.09.05.19.1.28,0,.1,0,.19-.05.29-.05.14-.09.24-.24.38-.57.62-1.05,1.29-1.43,2.05-.05.05-.05.14-.09.19-.05.1-.1.19-.14.24-.1.14-.14.24-.19.33-.05.1-.14.24-.19.38-.09.14-.19.38-.33.67-.29.52-.57,1.1-.81,1.72ZM160.71,138.4c-.76,1.14-1.72,2.1-2.77,2.91-.05.05-.14.14-.19.19l-.05.05c-.14.14-.29.24-.43.38-.29.24-.53.53-.81.76h-.05c-.19.24-.53.48-.91.81-.43.33-.81.62-1.24.86-.43.24-.76.29-1,.14-.24-.1-.29-.53-.14-1.24.38-1.81.91-3.29,1.53-4.39.62-1.1,1.58-2.24,2.77-3.43.1-.1.24-.24.33-.33.33-.38.72-.72,1.1-1.05.43-.33.86-.53,1.24-.53.38-.05.72.24,1,.86.53,1.57.43,2.91-.38,4.01ZM164.48,156.82c0,.24-.05.48-.14.76-.1.33-.19.57-.29.72-.1.19-.19.28-.24.24-.1,0-.1-.14-.1-.38.05-.19.1-.48.19-.76.09-.28.19-.53.29-.72.1-.19.19-.24.24-.24.05.05.1.19.05.38ZM170.88,134.68c-.14.33-.24.67-.38.95-.29.62-.52,1.38-.67,2.2-.1.52-.33,1.57-.76,3.15-.38,1.57-.81,3.15-1.24,4.72-.48,1.53-.76,2.53-.91,3.01-.1.33-.24.81-.38,1.43-.14.62-.33,1.24-.48,1.86-.24,1-.38,1.67-.53,2.05,0,.14-.05.24-.09.28-.1.33-.14.53-.19.67-.1.14-.14.19-.19.05-.05-.14-.05-.38-.05-.72s.1-.67.29-.91c.1-.19.19-.33.24-.43.05-.14.1-.29.14-.43.05-.1.1-.29.19-.48.05-.19.1-.48.1-.81.05-.33.05-.72.1-1.1,0-.43.05-.81.05-1.15.05-.33.1-.52.14-.62.14-.1.33-.57.67-1.38.29-.86.62-1.86.95-2.96.29-1.15.52-2.15.62-3.1.05-.53.09-.91.14-1.29.05-.53.09-.91.14-1.19.05-.33.05-.57.1-.76.05-.19.14-.38.24-.62.1-.29.19-.57.33-.91.29-.57.43-1.05.53-1.34,0-.19-.05-.38-.14-.67-.05-.19-.1-.33-.14-.53-.05-.15-.05-.29,0-.38.1-.1.19-.14.38-.1,0,0,.05,0,.14.05.05.05.14.1.24.14.1.1.19.19.29.29.09.14.14.28.19.43.05.19,0,.38-.05.57Z"/>
      <path class="cls-1" d="M181.8,149.86l.86-1.24c-1.96,2.15-2.96,3.24-3.1,3.24-.05,0-.05-.05-.05-.1,0-.29,1.72-2.53,5.2-6.73.43-.53,1.43-1.58,3.01-3.15l3.34-3.58c.53-.57.91-.86,1.1-.91.14,0,.19.09.19.29s-.1.53-.24,1l-.24.62c-1.15,3.15-1.86,6.35-2.15,9.64l-.05.76c0,.81.24,1.43.62,1.81.29.38.48.81.57,1.19.48,1.05,1.53,1.77,3.2,2.1h.29c.33,0,1.05-.24,2.2-.71l.48-.15c2-.86,3.82-2.05,5.44-3.48.24-.24.48-.33.67-.33.24,0,.48-.19.72-.57.29-.38.62-.71,1-.95,1.29-1,2.48-2.1,3.58-3.34,1.58-1.67,2.34-2.58,2.34-2.82-.29,0-1.15.62-2.67,1.91-3.44,3.01-6.01,5.01-7.68,6.01l-1.48,1.05s-.09,0-.14.05c-1.1.86-2.05,1.29-2.77,1.34-.19,0-.33-.05-.43-.19.14-.19.62-.57,1.43-1.14.29-.19.57-.38.91-.57,2.63-1.76,4.25-2.96,4.92-3.53.95-.72,1.91-1.53,2.82-2.39l.48-.38c2.05-1.91,3.72-3.63,5.01-5.2.33-.43.76-.81,1.19-1.24,1.05-.86,1.62-1.62,1.86-2.29,0-.48-.09-.72-.19-.76-.1-.05-.19-.1-.19-.15,0-.05.14-.24.38-.53,1.1-1.29,2.1-2.81,2.96-4.48-1.24.52-2.24,1.19-3.05,1.91-1.29,1.15-2.53,2.34-3.82,3.58-5.11,5.1-9.55,8.73-13.32,10.93-.19.1-.33.14-.43.14-.29,0-.43-.33-.43-.95,0-.81.43-2.53,1.34-5.25l.62-2.01c.29-.81.57-1.57.86-2.34.67-1.67,1.05-2.72,1.05-3.1,0-.29-.14-.67-.38-1.14l-.33-.91c-.24-.91-.57-1.48-.91-1.77l-.14-.1c-.19-.05-.33-.19-.48-.43-.38-.62-1.24-1.05-2.43-1.19-1.57.1-4.25,2.2-7.97,6.25-.95,1.05-1.53,1.62-1.81,1.77-.19.1-.33.14-.48.19-.29.09-.53.24-.62.43-.14.15-.24.24-.29.24v-.05c0-.14.24-.76.72-1.95l.1-.33c.43-.96.62-1.58.62-1.81,0-.43-.38-.86-1.1-1.19-.33-.14-.62-.29-.81-.48-1.29-1.14-2.15-1.72-2.58-1.67-.52,0-1.1.76-1.72,2.29-.53,1.05-1.19,2.72-2.05,4.92-.86,2.05-2.1,5.3-3.82,9.78-1,2.82-1.48,4.63-1.48,5.44,0,.43.14.76.53,1.1.33.33.53.71.57,1.14.1.62.29.96.53.91.14,0,.38-.09.72-.33.33-.24.53-.33.67-.33.05,0,.14.1.19.24,0,.57.57.81,1.67.81,2.05-1.14,3.67-2.72,4.92-4.82ZM211.48,137.35l.48-.48c.29-.29.48-.43.67-.53.05,0,.1,0,.1.05v.09c-.29.43-.52.77-.81.95-.24.19-.43.29-.48.29q-.1,0-.1-.05s.05-.19.14-.33ZM210.39,138.4c.14.05.24.14.24.33,0,.05-.05.1-.1.19-.05.05-.09.05-.14.05h-.09s-.05-.05-.1-.19c0-.24.05-.38.19-.38ZM209.81,139.02c.14,0,.19.1.19.24-.05.24-.05.33-.09.33l-.1.05c-.09,0-.14-.14-.14-.38,0-.14.05-.24.14-.24ZM209.29,139.45s.05-.05.14-.05c.14,0,.24.1.24.29,0,.14-.05.19-.1.19h-.14c-.1,0-.14-.09-.14-.33v-.09ZM178.7,149.71l.86-1.09c2.43-2.87,4.77-5.54,6.92-7.92,3.77-4.2,6.01-6.4,6.68-6.63.05,0,.05.1.05.24-.09.67-.76,1.58-2,2.72-.86.86-3.39,3.53-7.49,8.11-.43.57-2.24,2.63-5.39,6.06l-.24.29c-.14.14-.24.24-.33.24-.05-.05-.09-.1-.09-.19,0-.38.33-1,1.05-1.81Z"/>
      <path class="cls-1" d="M287.22,140.01c-.02-.28-.19-.73-.51-1.36-1.82-3.43-9.04-5.15-21.67-5.15-1.85,0-3.83.04-5.92.12-2.72.08-5.23.12-7.52.12-3.83,0-6.86-.13-9.24-.35-2.45-.4-6.22-1.81-4.59-6.96.68-1.74,1.58-3.45,2.59-5.16.9-1.35,2.11-3.05,3.15-4,1.89-1.73,2.83-1.73,3.3-2.68.47-.94-.79-1.1.79-2.04.61-.37.51-.53.32-.66.36-.38.63-.71,1.01-1.09,2.92-1.24,2.45-.92,3.24-2.02.79-1.1-.16-.47.79-1.1.22-.15.3-.2.33-.22t.01,0h0c.08-.06.25-.17.6-.4,1.42-.94,0,.47,1.42-.94s.47-.16,1.42-1.42c.94-1.26-.47-.16.94-1.26,1.42-1.1,1.1-1.1,2.68-1.73,1.58-.63,1.26-.47,2.83-1.73,1.58-1.26,1.73-1.73,3.78-2.68,2.05-.94,2.68-1.26,3.94-1.57,1.26-.31,8.5-3.62,8.03,2.83.1-.21.09-.32.16-.5-.06.75-.13,1.37-.19,1.78-.09.44-.29,1.21-.55,2.16-.08.16-.16.3-.26.48-1.11,2.14-1.68,3.77-1.72,4.89,0,.41.12.86.35,1.36.63,1.36,1.8,2.35,3.49,2.98.83.3,1.6.45,2.31.45.75,0,1.13-.1,1.13-.29,0-.17-.36-.41-1.07-.71-.71-.3-1.22-.61-1.54-.91-.55-.47-.83-1.14-.83-2.01,0-1.03.96-2.79,1.93-5.91-.06,0,.06-.17,0-.18.16-.93.29-1.81.29-2.55.42,1.97.67,2.74.82,2.97.05,0,.1.01.15.02.1-.23.08-1.03.08-1.03.86-4.23-1.21-6.96-3.26-8.59-1.94-2.01-4.68-3.08-8.21-3.2-5.37.16-11.09,2.19-17.17,6.1-10.9,7.62-18.26,15.95-22.09,24.99-.87,2.45-1.3,4.68-1.3,6.69,0,1.18.16,2.31.48,3.38,1.05,2.98,3.15,4.96,6.17,6.04h-.03s.1.03.18.06c.33.11.61.27.96.36.58.15,1.4.25,2.41.32,2.4.37,5.81.68,9.6.33,7.23-.66,7.1-.66,8.94-.39,1.84.26,1.71-.26,3.94-.26,1.55,0,2.81-.68,4.43-.96.83-.02,1.65-.04,2.39-.04.01,0,.02,0,.03,0,3.01.47,11.82.08,12.09,2.97.26,2.89,0,3.29-2.89,6.44,0,0,0,.01-.01.02-1.99,1.96-4.62,4.18-7.94,6.68-5.41,4.11-10.52,7.42-15.34,9.95-4.86,2.4-10.19,3.81-15.93,4.35-9.93.82-9.29-10.43-11.89-11.95-1.12-.65-1.18.65-.9,2.32-.08.05-.18.04-.23.13,0,.35.3,1.3.89,2.84.09.25.14.41.22.64.25.85.46,1.46.46,1.46l.06.06c.21.67.34,1.21.38,1.56.16,1.5,1.03,3.3,2.61,5.39,2.29,3.16,5.47,4.74,9.54,4.74s8.08-.74,12.14-2.09c.24-.22,0-.38-1.39-.33-3.68.13-9.21,1.97-12.62.79,0,0,24.33-.13,38.92-18.81,4.47-2.63.26,1.18-3.55,5.52-3.81,4.34.26,1.84,7.36-6.05,7.1-7.89,4.3-12.97,4.3-12.97ZM235.03,127.65s-.75-2.74.21-5c.96-2.26,2.44-4.73,2.44-4.73,0,0,.89-.83.28,1.2-.6,2.02-1.49,2.57-1.56,4.49-.07,1.92-1.03,7.2-1.37,4.04Z"/>
      <path class="cls-1" d="M273.54,117.88c-1.48.14-2.43.19-2.86.19l-.57-.05-.62.05s-.14.05-.24.05c-.81,0-1.24.14-1.24.43v.05c.24,1,1.48,1.48,3.72,1.48,1.38,0,2.43.1,3.05.24.19.05.33.1.48.1,1.34.33,2.01.53,2.01.62-.62.19-.95.33-.95.48.14.24.43.38.76.43h2.48l.09.05s-.14.05-.38.14c-.24.09-.38.19-.38.28,0,.05.05.15.14.19.48.43,1.48.62,3.01.62l13.67-.72c-.14.33-.24.67-.29,1l-2.82,7.25c-2.05,5.58-3.48,11.07-4.34,16.42-.14,1.67-.24,3.2-.24,4.58,0,2.63.29,4.87.86,6.73.86,4.39,2.86,7.45,5.97,9.12.81.33,1.48.53,1.91.53s.81-.15,1.19-.48c-2.05-2.24-3.2-4.25-3.53-6.01-.52-1.34-.76-2.48-.81-3.39-.05-.91-.05-1.53-.05-1.86,0-1.58.14-3.72.38-6.44v-.29c.1,0,.19-.05.29-.14s.14-.24.14-.43c-.05-.19-.19-.43-.43-.67-.14-.1-.24-.19-.24-.29,0-.05.05-.1.05-.14.19,0,.38-.05.57-.15.43-.24.72-1.1.86-2.58.05-.19.05-.43.05-.76-.05-.14-.1-.19-.14-.19-.53.33-.76.48-.81.48s-.05-.09-.05-.24c0-.24.14-.53.43-.86.14-.19.29-.33.43-.38.33-.14.48-.24.53-.28,0-.05.1-.43.29-1.19.24-.48.38-.86.48-1.19.09-.33.19-.57.24-.72.05-.14.05-.38.05-.62-.05-.05-.14-.1-.29-.19-.14-.05-.24-.29-.24-.72,0-.38.1-.57.29-.57.14,0,.29.05.43.14.14.1.24.14.29.14t.1.05c.14-.1.24-.29.24-.57,0-.1-.05-.19-.1-.24,0-.33.05-.53.14-.53l.96.1.09-.1c-.14-.14-.48-.33-.91-.48-.43-.14-.67-.28-.72-.48,0-.24.05-.48.09-.72.05-.24.1-.43.19-.57.05-.15.14-.19.19-.19.1,0,.14.15.19.43.05.43.19.67.33.67.57-.24.86-.76.86-1.53,0-.53-.19-.91-.62-1.19v-.05h.05c.91,0,1.53-.38,1.86-1.19.24-.53.38-1.15.52-1.76.24-.76.48-1.39.72-1.82.05-.14.09-.29.09-.53,0-.14-.05-.29-.09-.43-.1-.14.24-1,1.05-2.67v-.05c0-.14.1-.24.29-.38.52-.24.81-.48.81-.67l-.1-.1s.05-.14.19-.29c.33-.38.53-.67.53-.86l-.24-.43v-.24c2.05-.33,3.25-.48,3.58-.48,1.05-.1,1.67-.29,1.91-.62.19-.33.38-.48.52-.48l.14.19c.14.28.33.48.67.53.43,0,.81-.05,1.19-.19,1.91-.43,4.53-.67,7.92-.67.91.05,1.91.05,2.91.05,2,.19,3.39.38,4.15.57.72.24,1.58.53,2.48.86.72.24,1.14.38,1.38.38.19,0,.29-.15.29-.48-.05-.38-.24-.57-.53-.67l-.53-.33c0-.1.05-.19.19-.24.14-.05.19-.14.19-.29-.91-1.43-1.86-2.24-2.86-2.38-.67-.1-1-.24-1.05-.43,0-.05.05-.09.14-.14.1-.05.24-.05.48-.1.19-.05.38-.05.53-.05s.24,0,.33-.05c-1.24-1.05-4.29-1.53-9.21-1.48-4.92.05-8.78.28-11.64.72.24-.53.67-1.34,1.29-2.48.76-1.43,1.43-2.62,2.05-3.53.67-.91,1-1.62,1-2.24,0-.29-.24-.57-.67-.81-.67-.38-1-.86-1.1-1.43l.05-.86c.05-.14.05-.33.05-.57-.05-.62-.48-1.1-1.24-1.53-.91-.62-1.72-.96-2.43-.96-1.05,0-1.81.72-2.34,2.15-.33.76-.67,1.48-1.05,2.15l-3.1,6.78c-.72,2-1.29,3.39-1.72,4.1-.57.33-11.66.72-17.3,1.05-4.06.24-6.39.43-7.02.53ZM292.02,150.62s-.09-.19-.14-.53c0-.14.05-.24.1-.24.1.05.14.24.14.48,0,.19,0,.29-.1.29ZM292.6,147.95c-.14.38-.24.57-.29.57v-.38c0-.81.09-1.29.38-1.38.05,0,.05.05.05.14l-.14,1.05ZM293.74,142.41s-.09.1-.09.24-.05.29-.1.53c-.1.24-.14.43-.19.62-.05.24-.09.38-.14.43l-.05.05s-.05-.05-.05-.15c.05-.91.14-1.62.33-2.2.19-.57.33-.86.48-.86l.05.05c0,.19-.09.62-.24,1.29ZM326.62,119.07c.1-.05.19-.05.19-.05.19,0,.33.05.33.19s-.19.19-.53.19c-.09,0-.14,0-.14-.1s.05-.15.14-.24ZM322.09,118.41c2.29,0,3.44.14,3.48.43,0,.1-.33.14-1.05.19-1.1,0-2.96-.14-5.54-.38,1.1-.19,2.1-.24,3.1-.24ZM316.84,118.65c.19,0,.33.05.53.14l-.19.1h-.24c-.14,0-.29-.05-.38-.1,0-.1.1-.14.29-.14ZM313.98,118.5c.57,0,.86.1.86.24,0,.19-.67.28-2.05.33-.24,0-.53-.05-.91-.19,0-.24.72-.38,2.1-.38ZM298.85,130.86c.19,0,.29.05.29.24,0,.1-.05.19-.24.28-.19,0-.33-.05-.33-.19.05-.24.14-.33.29-.33ZM296.89,131.24c.09-.09.19-.14.24-.14.05.05.05.1.05.14,0,.14-.05.29-.19.48-.14.19-.24.29-.38.29-.05,0-.05-.05-.05-.1,0-.19.1-.43.33-.67Z"/>
      <path class="cls-1" d="M317.89,149.24c1.05-1.29,1.77-2,2-2.15.24.91.52,1.91.91,3.01l.05.19c.86,1.96,2.2,3.25,4.1,3.86,1.48-.53,3.15-1.77,4.92-3.72.72-.62,1.43-1.19,2.1-1.62.91-.62,2-1.57,3.29-2.91,0,0,0,0,0,0,.68,3.84,2.87,6.4,6.53,7.69,2.82.91,5.35.19,7.59-2.15t.05-.05c.29-.29.57-.48.76-.57.24-.1.43.09.57.53,0,.43.05.86.05,1.34.05,1.1.09,2.24.24,3.39.14,1.19.38,2.15.81,2.86.33.57.67,1.1,1.05,1.62.38.53.67.91.86,1.19.24.24.48.48.76.71.29.19.67.43,1.24.77.43.28.76.62.95.91.09.14.19.29.29.38.1.05.19.1.33.1.33,0,.57,0,.72.05.09.05.19.05.19,0s0-.14-.05-.28v-.05c-1.15-3.86-1.72-7.11-1.67-9.69.05-2.58.43-5.59,1.1-9.02.14-.71.29-1.43.38-2.24.24-1.1.48-2.05.81-2.91.29-.81.52-1.67.72-2.62.1-.53.19-.96.33-1.24.1-.24.24-.52.38-.71.19-.29.43-.76.62-1.34.1-.33.19-.62.29-.81.09-.19.19-.33.29-.48.19-.24.33-.57.43-.95.29-1.1.62-2.05,1.05-2.96.14-.38.29-.76.43-1.15.05-.14.1-.28.14-.43.1-.29.19-.53.29-.77.1-.24.19-.38.38-.48.14-.1.29-.05.52.1.29.24.53.29.62.19.09-.09.14-.24.09-.48-.05-.24-.14-.48-.33-.71-.05-.1-.14-.19-.19-.29-.1-.19-.19-.28-.24-.38-.05-.05-.05-.09-.05-.14.05,0,.1-.05.14-.05.09,0,.24,0,.38-.1.14-.05.33-.14.52-.33.19-.19.38-.48.57-.91.33-.67.72-1.53,1.15-2.53.57-1.24,1.15-2.53,1.77-3.82.62-1.29,1.19-2.34,1.72-3.1.43-.62.86-1.24,1.34-1.91.81-1.34,1.67-2.48,2.53-3.53.62-.67,1.19-1.14,1.62-1.48.57-.43.95-.86,1.14-1.34.14-.48.05-1.29-.33-2.48-.1-.28-.14-.52-.14-.67s.05-.29.05-.33c.05-.05.05-.09.05-.14s0-.1-.05-.14c-1.1-1.48-2.53-2.34-4.29-2.67-.86.15-1.91.91-3.05,2.29-1.19,1.43-2.29,2.96-3.34,4.63-1,1.62-1.72,2.86-2.1,3.67-.57,1.19-1.34,2.82-2.29,4.77-1.19,2.39-2.1,4.34-2.77,5.87-.38.91-.86,1.86-1.34,2.86-.81,1.67-1.48,3.2-1.96,4.63-.33,1-.67,2.01-1,2.96-.1.19-.14.38-.19.57-1-1.48-2.24-2.67-3.77-3.58-1.62-1.1-3.05-1.67-4.34-1.62-1.24.05-2.62.72-4.1,2-1.81,1.72-3.44,4.15-4.87,7.35-.15.31-.28.62-.41.93-.47.42-.93.84-1.4,1.27-2.82,2.82-5.82,5.54-8.97,8.11-.57.43-1.05.62-1.43.62-.52-.05-.76-.52-.72-1.38l.05-.43c.29-.28.43-.57.48-.81,0-.1,0-.24-.05-.38v-.52c.05-.62.29-1.24.81-1.77l.24-.38c.05-.1,0-.19-.05-.24-.24-.33-.38-.62-.33-.91,0-.57.38-1.29,1.05-2.1.33-.43.62-.81.76-1.14.19-.62.53-1.24.86-1.77.38-.53.57-.96.57-1.29.05-.33-.19-.62-.62-.81-.19-.19-.29-.48-.29-.81.05-.33.09-.71.14-1.19h-.29c-.19,0-.43-.19-.67-.57-.48-.96-1.14-1.43-2-1.43-.43,0-.81.19-1.24.52-.38.33-1.72,2.39-4.01,6.06-.57.91-1.29,2.01-2.15,3.29l-.43.76c-2,3.15-3.96,5.59-5.82,7.25-1.57,1.48-2.77,2.24-3.58,2.24-.52-.05-.72-.52-.67-1.43.05-1.38.76-3.63,2.15-6.73.91-2.15,1.86-4.06,2.82-5.63,1.05-1.77,1.57-2.82,1.57-3.1,0-.14-.1-.24-.33-.29-.19,0-.52.05-.91.1-.05-.34-.1-.72-.05-1.05-.1-.14-.33-.43-.76-.81-.95-.71-1.77-1.09-2.34-1.09-.48,0-1,.28-1.57.81-1.43,2.1-2.86,5.25-4.3,9.4-.91,2.34-1.43,4.68-1.53,6.92-.19,3.29,1.48,6.35,5.11,9.16.43.28,1,.43,1.62.43.76,0,1.62-.19,2.62-.62,2.53-1.67,4.63-3.53,6.3-5.63ZM366.32,120.7c.09-.33.19-.71.29-1.19.14-.43.24-.86.38-1.24.14-.38.24-.62.33-.76.14-.14.33-.53.62-1.1.33-.57.62-1.19,1-1.91.29-.62.57-1.15.86-1.67.24-.53.48-.91.62-1.1.19-.33.38-.62.57-.81.14-.19.29-.38.38-.57.1-.19.19-.43.29-.67.14-.43.33-.86.53-1.19.24-.33.48-.62.67-.71.1-.1.24-.14.43-.19.14-.05.29-.14.48-.24.14-.1.29-.24.38-.43.14-.19.24-.43.38-.71.1-.29.24-.53.29-.77.1-.19.14-.33.14-.33l.33-1.1h.14s.14.05.24.09c.09,0,.19.05.29.1.1.05.19.15.29.19.14.14.19.33.24.48.05.14.05.28,0,.38-.05.1-.19.1-.38,0-.09,0-.19,0-.19.05-.05.05-.05.14-.05.19-.05.1-.05.14-.1.19-.09.19-.24.38-.38.57-.24.33-.48.67-.72,1-.24.29-.48.53-.72.62-.19.1-.33.24-.48.38-.14.14-.24.29-.33.48-.1.14-.19.28-.24.38-.05.1-.05.19-.05.19,0,0-.05.05-.14.19-.1.14-.19.33-.33.57-.14.24-.29.48-.43.67-.14.24-.29.48-.38.62-.1.14-.19.24-.24.29-.05.05-.09.09-.14.14-.05,0-.09.05-.14.1-.05.05-.14.14-.24.28-.09.15-.19.34-.33.57-.24.33-.57,1-1,1.86-.48.91-.91,1.86-1.43,2.87-.48,1-.91,1.86-1.29,2.62-.33.72-.53,1.1-.53,1.1,0,0,.05-.14.1-.48ZM364.94,123.18c.09-.19.19-.38.38-.57.14-.19.33-.33.43-.43.05,0,.05.1.05.24s-.05.29-.1.48c-.05.19-.14.33-.24.48-.1.15-.24.24-.38.29-.14-.14-.19-.29-.14-.48ZM350.53,147.95c-.1.19-.29.38-.48.57-.19.19-.38.33-.52.43,0,.05-.05.05-.1.09-.14.14-.33.29-.62.57-.53.53-1.19,1.1-1.91,1.62-.72.53-1.29.72-1.72.57.33-.43.86-1,1.57-1.62.72-.67,1.29-1.15,1.77-1.48.05,0,.1-.05.19-.14.19-.14.38-.28.67-.48.29-.19.53-.33.76-.48.24-.15.38-.19.48-.15.09.15.05.29-.1.48ZM350.81,133.01c.95.43,1.53,1,1.81,1.77,0,.71-.43,2.05-1.38,3.96-.95,1.91-2.15,3.72-3.53,5.44-1.43,1.72-2.82,2.63-4.15,2.77-.38.15-.67.15-.95.1-.29,0-.48-.24-.67-.62-.24-.96,0-2.39.76-4.2.76-1.82,1.67-3.58,2.77-5.3,1.1-1.72,2-2.91,2.72-3.58.86-.62,1.72-.72,2.62-.33ZM348.14,131.2c.1-.05.24-.1.38-.1s.24.05.33.1c.1.05.14.14.14.24s-.05.14-.14.24c-.09.05-.19.1-.33.1s-.29-.05-.38-.1c-.1-.1-.14-.14-.14-.24s.05-.19.14-.24ZM342.65,137.93c.09-.1.19-.24.29-.38.1-.14.14-.33.24-.57.14-.43.33-.81.57-1.24.24-.38.48-.67.67-.81.1-.05.14-.1.24-.14.14-.05.29-.14.43-.29.14-.1.29-.24.43-.48.09-.24.24-.43.38-.67.14-.24.24-.43.33-.62.09-.19.19-.24.19-.24.19-.57.38-.91.57-1,.14-.14.24-.14.24-.1.05.1.09.19.09.34v.05c.05.1.05.14.1.19,0,.1,0,.14.05.24,0,.05,0,.1-.05.15-.24.33-.48.67-.76,1.14-.24.38-.43.72-.67,1.05-.24.33-.48.57-.72.67-.19.14-.43.28-.57.43-.19.19-.29.33-.38.48-.1.14-.14.24-.14.24,0,0-.05.1-.14.29-.1.24-.19.48-.33.76-.09.29-.24.57-.43.81-.1.19-.24.38-.29.53-.1.19-.19.33-.29.48-.1.19-.29.38-.48.57-.19.24-.48.71-.76,1.48-.33.76-.53,1.58-.62,2.48-.05.86-.05,1.57,0,2.15.05.33.05.62,0,.71,0,.14-.05.1-.14-.14-.05-.24-.09-.57-.19-1.05-.05-.43-.1-.95-.1-1.53,0-.67.1-1.29.19-1.81.14-.52.29-.86.38-1,.14-.24.29-.57.43-.95.14-.43.38-.91.67-1.43.19-.33.38-.57.57-.76ZM332.16,146.13c1.3-1.16,2.32-2.08,3.08-2.77-.03.24-.06.48-.08.71-.02.28-.02.58,0,.88-.31.23-.6.53-.85.89-.38.57-.91,1.05-1.57,1.38-.72.33-1.38.76-2.05,1.24-.67.53-1.24.86-1.62,1.05.1-.38,1.15-1.53,3.1-3.39ZM313.5,151.48c-.95.76-1.53,1.14-1.77,1.14-.19,0-.29-.05-.29-.19.05-.14.1-.24.24-.33.48-.14,1.15-.62,2-1.38.95-.76,1.48-1.15,1.62-1.15,0,.14-.62.76-1.81,1.91ZM315.93,149h-.05l-.05-.19c0-.1.14-.24.38-.43v-.05h.05c.33-.43.57-.62.67-.62,0,.05-.05.14-.1.24-.1.14-.19.24-.29.38-.14.14-.33.38-.62.67Z"/>
      <path class="cls-1" d="M373.81,121.65c-.67,1.14-1,2.05-1.05,2.81,0,.72-.05,1.15,0,1.29.05,1,.43,1.82,1.15,2.39.86.53,1.62.81,2.29.81,1.1,0,2.24-.86,3.39-2.58.38-.53.76-1,1.1-1.38.52-.48.76-.96.76-1.38-.05-.24-.1-.48-.24-.81-.14-.33-.19-.57-.19-.72-.05-.19,0-.28.05-.28,0,0,.05-.05.09-.05s.1-.05.1-.05c.05,0,0-.05,0-.1-.29-.76-1.05-1.29-2.24-1.62-1.05-.33-1.96-.48-2.77-.48-.95.28-1.77,1-2.43,2.15ZM375.67,122.56c-.67,1.05-1.05,1.57-1.19,1.57-.09-.05-.14-.1-.14-.24,0-.24.24-.86.76-1.86.48-.76.81-1.15.95-1.15.1,0,.14.05.14.19,0,.24-.19.76-.53,1.48Z"/>
      <path class="cls-1" d="M397.77,150.38c-.19,0-.29.1-.29.33,0,.19.1.24.29.24.14,0,.24-.1.24-.28s-.1-.29-.24-.29Z"/>
      <path class="cls-1" d="M415.47,138.83s.05.05.1.05l.43-.24s.05-.05.05-.05v-.05s.05-.05.05-.09c-.43.05-.62.14-.62.38Z"/>
      <path class="cls-1" d="M413.09,139.74s.05.1.1.1l.14-.05c.33,0,.48-.1.48-.19,0-.05-.1-.05-.24-.05-.33.1-.48.15-.48.19Z"/>
      <path class="cls-1" d="M418.86,132.72c.24,0,.38-.14.38-.38-.05-.1-.14-.15-.29-.19-.19.14-.29.24-.29.33,0,.14.05.24.09.24h.1Z"/>
      <path class="cls-1" d="M418.38,132.82c-1.38.19-2.2.62-2.48,1.14-2.29,1.24-4.01,2.24-5.2,2.91-1.19.67-2.53,1.24-4.1,1.77-.14.15-.57.24-1.29.24-.53,0-.81-.19-.81-.67.05-.62.05-1.14.09-1.57.05-.43.05-.91.05-1.38-.05-.96-.19-1.67-.43-2.29-.14-.14-.19-.43-.19-.81-.1-1.1-.52-1.91-1.29-2.34-.33-.14-.81-.48-1.43-.96-.95-.62-1.67-.95-2.2-.95-.19,0-.48.09-.81.28-.29.19-.57.29-.81.29-.33,0-.72-.1-1.24-.29-.81-.28-1.53-.38-2.15-.38-1.8,0-3.65.85-5.5,2.5,0-.02.02-.06.02-.07t-.05-.05s-.24.14-.53.38c-4.25,5.58-7.59,9.4-10.02,11.5-2.48,2.05-5.06,3.63-7.78,4.73h-.24c-.38,0-.57-.19-.62-.57,0-.86.76-2.82,2.39-5.87.72-1.43,1.29-2.63,1.67-3.58.33-.76.72-1.43,1.19-1.96.76-.86,1.1-1.62,1.05-2.24,0-.62-.52-1.34-1.58-2.24-1-.62-1.91-.91-2.72-.91-1.53,0-2.77,1-3.72,3.01-.14.29-.33.57-.57.86-.24.33-.38.62-.52.86-2.15,4.15-3.68,8.54-4.63,13.12-.29,1.43-.38,2.72-.33,3.82.19,3.44,1.81,5.11,4.87,5.11.86,0,1.81-.1,2.96-.38l.57-.09c.57-.19.91-.29,1-.33.1-.05.19-.14.24-.24.1-.14.24-.28.48-.52.76-.86,2.05-1.86,3.82-3.01,1.05-.67,1.77-1.29,2.15-1.86.53-.72.76-1.19.76-1.48,0-.05-.05-.1-.09-.1-.19,0-.67.34-1.43.96-1.81,1.53-3.67,2.72-5.54,3.58-2.67,1.24-4.25,1.86-4.77,1.86t-.05-.05c0-.14.81-.72,2.39-1.62,4.34-2.58,8.02-5.11,10.93-7.68.98-1.06,1.87-2.12,2.71-3.17-.79,2.43-1.24,4.56-1.33,6.36,0,3.05,1.19,5.49,3.53,7.3,1.34.91,2.53,1.34,3.67,1.34h.1c.43-.05,1.1-.19,2-.53.86-.33,1.67-.72,2.39-1.14.72-.48,1.1-.91,1.1-1.34,0-.29.19-.57.62-.91.38-.33.62-.48.76-.48t.05.05c0,.1-.09.24-.29.53-.33.38-.48.62-.48.67s0,.05.05.05c.14,0,.53-.28,1.1-.95.43-.53.62-.86.62-1t-.05-.05l-.38.05c-.14,0-.19-.05-.19-.15,0-.24.38-.67,1.15-1.38.86-.81,1.53-1.67,2-2.48.43-.86.76-1.29.91-1.34.14,0,.24-.14.24-.43s.1-.43.29-.48c.19,0,.38-.29.57-.86.1-.43.19-.67.33-.67.09,0,.24.15.33.43.24.14.57.19,1.1.19.91,0,2.24-.19,3.96-.62,1-.24,1.72-.48,2.15-.67,1.38-.81,2.62-1.77,3.77-2.91l.29-.19-2.48,1.1c-1.48.96-3.15,1.48-4.92,1.67-.81-.1-1.19-.19-1.19-.29,0-.14.33-.29,1.05-.48.67-.14,1-.28,1.05-.28,1.24-.33,2.43-.86,3.63-1.58,2.34-1.43,3.58-2.15,3.63-2.24.05-.05.19-.14.43-.28,1.19-.81,1.81-1.29,1.81-1.38-.14,0-.72.24-1.62.72-1.48.81-2.43,1.24-2.77,1.24,1.05-.76,2-1.38,2.82-1.81.86-.43,1.48-.86,1.86-1.29.33-.38.62-.72.81-.91.53-.48.95-1.05,1.34-1.81ZM362.88,149.66c-.29-.05-.48-.33-.48-.76.05-.43.19-.67.48-.67s.43.19.43.57c.05.57-.1.86-.43.86ZM369.13,133.15c0,.14-.19.53-.52,1.05l-.48.86-.53.43c-.33.33-.48.72-.48,1.05,0,.14,0,.33-.1.53-.05.24-.1.48-.14.81-.05.33-.14.62-.24.91-.14.19-.24.38-.24.57.05.19,0,.43-.1.71l-.38,1.19c-.14.33-.33.67-.52,1.05-.43.72-.67,1.14-.72,1.29-.05.19-.29.48-.72.91-.19.14-.29.38-.24.72l-.19,1.53c-.1.29-.19.43-.29.43-.14,0-.19-.09-.29-.24-.05-.14-.1-.29-.1-.43v-.19c.05-.43.14-.76.33-1.14.14-.33.29-.67.38-.96.05-.28.19-.67.43-1.19.19-.57.43-1.1.72-1.67.24-.53.43-.96.62-1.19.19-.29.38-.53.52-.71.19-.19.24-.53.24-1l-.05-.38c-.05-.43-.05-.72,0-.86,0-.14.24-.62.76-1.34.43-.62.67-1.1.72-1.38.1-.67.24-1.1.43-1.34.14-.19.29-.33.43-.43.19-.14.33-.38.52-.72.24-.52.72-.86,1.43-1.05l.19-.05c.29,0,.43.14.43.38.05.19-.14.43-.53.71-.43.29-.72.48-.95.62-.24.14-.38.33-.38.53ZM386.84,151.24h-.05c-.33,0-.53-.33-.53-1.05,0-.24.05-.48.1-.67.05-.19.14-.48.29-.91.43-1.58,1.05-3.58,1.86-5.97.48-1.43.81-2.2,1.05-2.29.19-.15.29-.38.29-.72s.19-.71.57-1.14c.33-.43.72-1,1.05-1.72.33-.71.67-1.1,1.05-1.19.38-.05.76-.33,1.19-.76.43-.43.76-.67,1-.67.19,0,.29.24.29.72l-.05.19c.05.67.24,1.38.48,2.2.24.81.53,1.43.86,1.86.29.38.43.71.43,1-.05.43-.48,1.34-1.34,2.58-.86,1.29-1.86,2.58-3.01,3.96-1.15,1.38-2.15,2.39-3.05,3.15-1.14.91-1.96,1.43-2.48,1.43ZM400.1,144.7s-.52.81-1.34,2.2c-.86,1.38-1.96,2.81-3.29,4.25-1.86,2.05-3.48,3.43-4.87,4.06-.33.19-.62.29-.76.29-.38,0-.57-.09-.57-.24,0-.34.48-.72,1.43-1.24,1.15-.67,2.48-1.81,4.06-3.44,1.53-1.62,2.91-3.39,4.15-5.2.72-1.1,1.15-1.62,1.29-1.62s.24.14.24.38c0,.29-.1.48-.33.57ZM402.01,137.93l-.05.14c0-.14,0-.43.05-.76.05-.38.14-.72.24-1.05.1-.33.24-.52.33-.62.1.05.1.15.1.33,0,.38-.19,1.05-.67,1.96ZM403.92,138.02c-.14-.05-.19-.19-.19-.38l.05-.33c.1-.24.19-.33.29-.33.1.05.14.19.14.52,0,.29-.1.48-.29.53ZM404.11,135.97c-.19-.05-.29-.09-.29-.24,0-.19.05-.33.19-.33.1,0,.19.05.19.09.05.1.05.14.05.19,0,.19-.05.28-.14.28Z"/>
      <path class="cls-1" d="M418.91,133.58c-.29.43-.62.76-.95,1.05-.33.29-.67.67-1.05,1.24-.19.33-.33.57-.33.67,0,.05.05.05.1.05l.48-.33c1.34-1.14,2.29-2.24,2.81-3.39-.38.05-.72.29-1.05.72Z"/>
      <path class="cls-1" d="M69.48,225.04c.58-1.52.87-3.08.87-4.62,0-1.01-.16-1.99-.47-2.93-.31-.94-.79-1.78-1.42-2.51-.63-.72-1.41-1.32-2.33-1.77-.92-.45-2.01-.68-3.22-.68-1.06,0-2.08.23-3.04.68-.94.44-1.83,1-2.64,1.66-.81.66-1.56,1.4-2.23,2.2-.32.38-.61.76-.89,1.12l8.53-23.78h-9.66l-.37,1.3h4.99l-10.99,30.88c-.31.77-.59,1.67-.84,2.68-.25,1.02-.38,1.93-.38,2.71,0,1.25.22,2.32.65,3.19.43.86.99,1.58,1.66,2.13.67.55,1.41.96,2.22,1.21.8.25,1.58.38,2.33.38,1.16,0,2.43-.24,3.76-.73,1.32-.48,2.67-1.15,4.01-1.99,1.34-.84,2.63-1.86,3.86-3.02,1.22-1.16,2.33-2.44,3.28-3.8.96-1.36,1.74-2.82,2.31-4.33ZM49.69,229.97c.39-1.48.93-3,1.58-4.49.66-1.5,1.45-2.97,2.35-4.38.9-1.41,1.87-2.66,2.88-3.72,1-1.06,2.06-1.93,3.14-2.58,1.06-.64,2.11-.96,3.12-.96,1.11,0,1.99.29,2.63.85.62.56.94,1.39.94,2.49,0,1.19-.19,2.54-.56,4.01-.37,1.48-.9,3-1.55,4.52-.66,1.52-1.45,3.02-2.35,4.44-.9,1.42-1.88,2.71-2.91,3.84-1.02,1.12-2.12,2.02-3.25,2.69-1.11.66-2.23.99-3.32.99-2.21,0-3.28-1.17-3.28-3.57,0-1.26.2-2.65.59-4.12Z"/>
      <path class="cls-1" d="M98.31,212.54c-.76,0-1.44.15-2.02.46-.57.29-1.08.68-1.52,1.13-.43.45-.82.98-1.15,1.56-.32.57-.64,1.14-.94,1.71l-8.11,14.62c.19-.96.38-2.05.57-3.27.29-1.81.43-4,.43-6.51,0-.96-.11-2.01-.32-3.12-.21-1.12-.57-2.18-1.05-3.14-.49-.98-1.17-1.8-2.01-2.45-.86-.66-1.94-.99-3.2-.99-1.08,0-1.98.29-2.69.85-.69.55-1.26,1.23-1.71,2.01-.45.77-.79,1.6-1.02,2.45-.23.84-.42,1.56-.57,2.17l-.06.23,1.28.37.06-.26c.11-.49.27-1.11.48-1.87.2-.74.48-1.47.81-2.18.33-.7.73-1.3,1.21-1.79.45-.47.97-.69,1.59-.69.27,0,.52.15.78.45.28.33.54,1,.77,2,.24,1.03.44,2.48.59,4.32.15,1.85.23,4.28.23,7.22s-.31,5.91-.93,8.75c-.62,2.84-1.42,5.39-2.38,7.59-.95,2.19-2.02,3.98-3.15,5.32-1.1,1.3-2.16,1.96-3.14,1.96-.51,0-.93-.12-1.25-.35-.3-.22-.44-.49-.44-.82,0-.36.03-.63.08-.82.05-.2.12-.38.19-.53.08-.18.15-.36.21-.54.07-.2.1-.48.1-.85,0-.53-.18-.95-.55-1.25-.35-.28-.8-.43-1.35-.43-.69,0-1.34.17-1.95.52-.65.37-.98,1.1-.98,2.18,0,1.29.48,2.32,1.43,3.07.93.74,2.17,1.11,3.66,1.11.99,0,1.95-.28,2.87-.83.89-.54,1.75-1.27,2.56-2.15.8-.88,1.57-1.91,2.28-3.06.7-1.13,1.38-2.33,2.03-3.54l3.3-6.15,10.37-18.8c.82-1.46,1.5-2.51,2.02-3.12.48-.57.93-.88,1.33-.91.18-.02.31,0,.39.06.1.09.13.29.13.43,0,.28-.08.49-.24.65-.26.26-.39.63-.39,1.12,0,.82.47,1.28,1.33,1.28s1.5-.25,2-.76c.5-.5.76-1.16.76-1.94,0-.62-.2-1.19-.6-1.69-.41-.52-1.12-.78-2.1-.78Z"/>
      <path class="cls-1" d="M140.32,196.48v-.24h-1.69l-28.6,40.68h-4.9l-.37,1.3h12.26l.37-1.3h-5.61l10.82-15.45h12.73l.33,15.45h-6.14l-.37,1.3h18.07l.37-1.3h-6.24l-1.02-40.44ZM135.32,220.17h-11.8l11.58-16.46.22,16.46Z"/>
      <path class="cls-1" d="M156.6,232.92l13.68-38.51h-9.6l-.37,1.3h5.05l-12.59,35.22c-.23.65-.46,1.38-.69,2.15-.23.8-.35,1.54-.35,2.21,0,1.3.41,2.24,1.22,2.8.78.54,1.83.81,3.13.81,1.18,0,2.21-.24,3.08-.71.86-.47,1.59-1.03,2.17-1.68.58-.64,1.04-1.29,1.38-1.93.32-.63.56-1.09.71-1.4l.12-.24-1.16-.48-.1.22c-.15.33-.39.79-.73,1.34-.33.55-.74,1.11-1.22,1.64-.48.54-1.01,1.01-1.58,1.42-.54.39-1.1.58-1.65.58-.46,0-.79-.13-1-.39-.23-.28-.34-.61-.34-1.01,0-.5.09-1.04.27-1.6.19-.59.38-1.17.57-1.73Z"/>
      <polygon class="cls-1" points="230.68 198.45 231.05 197.15 212.98 197.15 212.61 198.45 219.14 198.45 212.6 216.58 194.78 216.58 201.27 198.45 207.21 198.45 207.58 197.15 189.45 197.15 189.08 198.45 195.55 198.45 181.77 236.92 175.95 236.92 175.58 238.22 193.59 238.22 193.96 236.92 187.43 236.92 194.31 217.88 212.13 217.88 205.25 236.92 199.31 236.92 198.94 238.22 217.12 238.22 217.49 236.92 210.96 236.92 224.8 198.45 230.68 198.45"/>
      <path class="cls-1" d="M251.69,232.68c-.15.34-.39.79-.73,1.34-.34.56-.74,1.11-1.2,1.65-.46.53-.98,1.01-1.55,1.41-.54.39-1.12.58-1.71.58-.46,0-.79-.13-1-.39-.23-.28-.34-.61-.34-1.01,0-.51.09-1.05.27-1.6.19-.59.38-1.17.57-1.73l6.84-19.65h-4.52l-4.1,11.84c-.52,1.46-1.26,2.95-2.2,4.42-.93,1.48-1.98,2.84-3.11,4.04-1.12,1.2-2.28,2.19-3.46,2.95-1.15.75-2.22,1.13-3.2,1.13-.6,0-1.01-.17-1.25-.52-.26-.38-.38-.8-.38-1.28,0-.29.07-.73.22-1.34.15-.61.37-1.32.68-2.11l6.67-19.13h-9.71l-.37,1.3h5.05l-5.47,15.46c-.19.61-.42,1.3-.68,2.07-.27.8-.41,1.51-.41,2.1,0,1.52.51,2.7,1.52,3.5.99.79,2.35,1.19,4.03,1.19,1.06,0,2.11-.27,3.11-.8.98-.52,1.92-1.16,2.78-1.91.86-.74,1.67-1.56,2.42-2.42.44-.51.86-1,1.23-1.46-.13.38-.24.74-.32,1.06-.16.61-.24,1.25-.24,1.91,0,1.3.41,2.24,1.22,2.8.78.54,1.83.81,3.13.81,1.18,0,2.21-.24,3.08-.71.86-.47,1.59-1.03,2.17-1.68.58-.64,1.04-1.29,1.38-1.93.32-.63.56-1.09.71-1.4l.12-.24-1.16-.48-.1.22Z"/>
      <path class="cls-1" d="M275.56,228.89c-.58,0-1.14.17-1.67.49-.57.35-.86.92-.86,1.69,0,.83.25,1.48.74,1.92.43.4.85.76,1.23,1.06.33.29.58.55.74.76.14.19.21.42.21.71,0,.36-.12.67-.36.95-.24.27-.6.4-1.09.4-.83,0-1.85-.28-3.02-.83l-2.79-1.36c-1.31-.69-2.82-1.18-4.49-1.45-1.42-.23-2.69-.36-3.79-.39l17.47-19.45-.97-.78-.16.2c-.14.17-.31.34-.52.5-.18.14-.44.21-.76.21-.46,0-1.36-.03-2.67-.09-1.33-.06-2.75-.11-4.25-.17-1.5-.06-2.93-.1-4.28-.14-1.35-.04-2.29-.06-2.83-.06s-.89.1-1.11.29c-.2.18-.37.44-.49.78-.08.2-.18.53-.29,1l-.37,1.48c-.13.53-.27,1.05-.4,1.56-.14.52-.26.94-.37,1.27l-.09.26,1.3.28.34-1.31c.14-.48.33-.81.59-1.01.26-.19.69-.29,1.28-.29.3,0,.89,0,1.76.03.87.02,1.84.05,2.9.09l3.25.11c.87.03,1.64.06,2.32.09l-18.23,20.49,1.08.81.15-.17c.36-.4.9-.84,1.58-1.3.66-.44,1.48-.67,2.45-.67.86,0,1.64.04,2.31.11.67.07,1.32.21,1.96.39l2.74.69c1.03.23,1.97.43,2.83.6.87.17,1.62.26,2.24.26.96,0,1.89-.11,2.74-.32.87-.22,1.64-.59,2.29-1.1.65-.52,1.19-1.2,1.58-2.03.39-.83.59-1.86.59-3.07,0-1.03-.22-1.88-.64-2.51-.45-.66-1.18-.99-2.17-.99Z"/>
      <path class="cls-1" d="M302.91,230.88l6.33-17.6h-4.52l-.75,2.16c-.17-.74-.57-1.37-1.19-1.88-1.55-1.26-3.72-1.36-6.54-.27-1.28.5-2.6,1.19-3.92,2.08-1.32.88-2.63,1.92-3.91,3.1-1.28,1.19-2.42,2.49-3.4,3.89-.98,1.4-1.78,2.88-2.39,4.41-.62,1.54-.93,3.11-.93,4.65,0,1.28.17,2.4.5,3.33.33.94.8,1.73,1.39,2.34.59.61,1.28,1.07,2.06,1.37.76.29,1.57.44,2.4.44,1.28,0,2.46-.23,3.52-.67,1.04-.44,2.01-1.01,2.88-1.69.86-.67,1.65-1.41,2.34-2.2.43-.49.84-.97,1.23-1.42-.07.28-.13.57-.18.87-.12.68-.17,1.15-.17,1.44,0,2.43,1.35,3.67,4.01,3.67,1.1,0,2.08-.23,2.91-.69.81-.44,1.54-.97,2.16-1.58.62-.6,1.13-1.24,1.52-1.9.39-.66.67-1.19.87-1.62l.1-.21-1.17-.63-.12.23c-.11.23-.31.62-.6,1.17-.28.54-.63,1.08-1.06,1.61-.42.53-.93,1.01-1.52,1.43-.56.4-1.2.61-1.91.61-.81,0-1.17-.38-1.17-1.23,0-.7.12-1.5.36-2.38.25-.9.54-1.86.88-2.83ZM303.06,217.06c0,.36-.06.79-.19,1.28-.13.5-.43,1.37-.88,2.57l-3.02,8.38c-.18.51-.61,1.24-1.28,2.16-.67.93-1.49,1.88-2.42,2.82s-1.97,1.74-3.09,2.41c-1.09.66-2.18.99-3.23.99s-1.72-.33-2.15-1.02c-.45-.71-.67-1.67-.67-2.83,0-1.04.17-2.26.51-3.64.34-1.39.82-2.84,1.44-4.32.62-1.49,1.37-2.97,2.23-4.41.86-1.45,1.82-2.75,2.85-3.86,1.02-1.11,2.13-2.03,3.3-2.72,1.15-.68,2.35-1.02,3.55-1.02.63,0,1.15.11,1.53.33.39.23.7.5.92.81.23.31.39.66.47,1.02.09.38.14.73.14,1.05Z"/>
      <path class="cls-1" d="M326.5,197.15c-.83,0-1.53.28-2.09.84s-.84,1.26-.84,2.08.28,1.53.84,2.09,1.26.84,2.09.84,1.53-.28,2.08-.84.84-1.26.84-2.09-.28-1.53-.84-2.08-1.26-.84-2.08-.84Z"/>
      <path class="cls-1" d="M320.58,238.19c.86-.47,1.59-1.03,2.17-1.68.58-.64,1.04-1.29,1.38-1.93.32-.63.56-1.09.71-1.4l.12-.24-1.16-.48-.1.22c-.15.34-.39.79-.73,1.34-.33.55-.74,1.1-1.23,1.64-.48.54-1.01,1.01-1.58,1.42-.54.39-1.1.58-1.65.58-.46,0-.79-.13-1-.39-.23-.28-.34-.61-.34-1.01,0-.51.09-1.05.27-1.6.19-.59.38-1.17.57-1.73l6.84-19.65h-9.6l-.37,1.3h5.05l-5.75,16.36c-.23.64-.46,1.37-.69,2.15-.23.8-.35,1.54-.35,2.21,0,1.3.41,2.24,1.22,2.8.78.54,1.83.81,3.13.81,1.18,0,2.21-.24,3.08-.71Z"/>
      <path class="cls-1" d="M348.42,213.28h-7.01l1.11-4.02c.26-.97.68-2.24,1.25-3.77.56-1.51,1.3-3.02,2.2-4.49.89-1.45,1.99-2.72,3.25-3.75,1.24-1.02,2.7-1.54,4.34-1.54.53,0,1,.1,1.4.29.34.17.51.51.51,1.06,0,.26-.05.48-.17.67-.13.22-.28.46-.44.7-.18.26-.35.54-.5.82-.17.32-.26.7-.26,1.12,0,.49.21.93.62,1.3.41.37,1.05.55,1.96.55,1.08,0,1.83-.37,2.24-1.1.38-.68.57-1.37.57-2.06,0-.48-.11-1-.33-1.55-.22-.54-.58-1.05-1.06-1.51-.48-.46-1.08-.84-1.79-1.13-.71-.3-1.59-.45-2.6-.45-1.67,0-3.35.42-5.01,1.25-1.65.83-3.21,1.97-4.62,3.41-1.41,1.43-2.69,3.13-3.8,5.04-1.11,1.91-1.98,4-2.59,6.21l-.8,2.95h-5.41l-.37,1.3h5.42l-6.18,23.22c-1.32,4.81-2.71,8.34-4.16,10.5-1.41,2.1-2.88,3.17-4.38,3.17-.44,0-.8-.1-1.08-.3-.25-.18-.38-.47-.38-.88,0-.49.09-.95.26-1.35.2-.47.31-.93.31-1.38,0-.7-.19-1.17-.57-1.41-.34-.21-.79-.32-1.33-.32-.99,0-1.73.3-2.22.89-.47.58-.71,1.26-.71,2.04s.17,1.47.5,1.99c.33.51.74.91,1.22,1.21.48.3,1.01.51,1.59.63.56.12,1.11.18,1.62.18,1.71,0,3.36-.54,4.9-1.61,1.51-1.05,2.93-2.48,4.22-4.25,1.28-1.75,2.43-3.8,3.42-6.09.99-2.28,1.82-4.67,2.46-7.1l5.02-19.13h7l.37-1.3Z"/>
      <path class="cls-1" d="M368.32,230.88l6.33-17.6h-4.52l-.75,2.16c-.17-.74-.57-1.37-1.19-1.88-1.55-1.26-3.72-1.36-6.54-.27-1.28.5-2.6,1.19-3.92,2.08-1.32.88-2.63,1.92-3.91,3.1-1.28,1.19-2.42,2.49-3.4,3.89-.97,1.4-1.78,2.88-2.39,4.41-.62,1.54-.93,3.11-.93,4.65,0,1.28.17,2.4.5,3.33.33.94.8,1.73,1.39,2.34.59.61,1.28,1.07,2.06,1.37.76.29,1.57.44,2.4.44,1.28,0,2.46-.23,3.52-.67,1.04-.44,2.01-1.01,2.88-1.69.86-.67,1.65-1.41,2.34-2.2.43-.49.84-.97,1.23-1.42-.07.27-.13.56-.18.87-.12.68-.17,1.15-.17,1.44,0,2.43,1.35,3.67,4.01,3.67,1.1,0,2.08-.23,2.91-.69.81-.45,1.54-.98,2.16-1.58.62-.6,1.13-1.24,1.52-1.9.38-.65.67-1.19.87-1.62l.1-.21-1.17-.63-.12.23c-.11.23-.31.62-.6,1.17-.27.53-.63,1.07-1.05,1.61-.42.53-.93,1.01-1.52,1.43-.56.4-1.2.61-1.9.61-.81,0-1.17-.38-1.17-1.23,0-.7.12-1.5.36-2.38.24-.9.54-1.85.88-2.83ZM368.46,217.06c0,.36-.06.79-.19,1.28-.13.5-.42,1.37-.88,2.57l-3.02,8.38c-.18.51-.61,1.24-1.28,2.16-.67.93-1.49,1.88-2.42,2.82s-1.97,1.74-3.09,2.41c-1.09.66-2.18.99-3.23.99s-1.72-.33-2.15-1.02c-.45-.72-.67-1.67-.67-2.83,0-1.04.17-2.26.51-3.64.34-1.39.82-2.84,1.44-4.32.62-1.49,1.38-2.97,2.24-4.41.86-1.44,1.82-2.74,2.85-3.86,1.02-1.11,2.13-2.03,3.3-2.72,1.15-.68,2.35-1.02,3.55-1.02.63,0,1.15.11,1.53.33.38.23.7.5.92.81.23.32.38.66.47,1.02.09.38.13.74.13,1.05Z"/>
      <path class="cls-1" d="M192.34,44.11v2.9h-.08c-21.65-.82-20.92,12.97-20.92,12.97v21.92h8.5-.01s0-.01,0-.01h0s0,0,0,0h.05-.05s5.22.01,5.22.01c0,0,18.44.25,18.44-13.28v-24.49h12.95v24.49c0,13.54,18.44,13.28,18.44,13.28h5.22-.05s.05-.01.05-.01h0s0,0,0,0h0-.01s8.5.01,8.5.01v-21.92s.73-13.79-20.92-12.97h-.08v-2.9c31.79,1.8,29.41-24.19,29.41-24.19V0s-22.37,0-22.37,0c0,0-19.26-.39-18.21,20.12v10.51c-.02.31-.02.61,0,.89v8.26h-12.95v-8.26c.02-.29.02-.59,0-.89v-10.51C204.55-.39,185.3,0,185.3,0h-22.36s0,19.91,0,19.91c0,0-2.37,25.99,29.41,24.19ZM227.84,50.18h.4c12.37.17,11.88,11.43,11.88,11.43v17.59h-4.64s-7.94.31-7.94-10.16v-18.87h0s.08,0,.08,0h0c.08,0,.15,0,.23,0ZM227.53,20.87v-7.69c.76-9.92,10.02-9.77,10.02-9.77h11.07v16.08s1.15,20.13-21.01,20.29h0s-.08,0-.08,0v-18.91ZM192.42,50.18v18.87c0,10.47-7.94,10.16-7.94,10.16h-4.64v-17.59s-.49-11.26,11.88-11.43h.4c.08,0,.15,0,.23,0h0s.07,0,.07,0h0ZM171.34,19.49V3.41h11.07s9.26-.15,10.02,9.77v26.6s-.03,0-.08,0h0c-22.16-.16-21.01-20.3-21.01-20.3Z"/>
    </g>
  </g>
</svg>